<?xml version="1.0" encoding="UTF-8"?>
<svg id="Layer_1" xmlns="http://www.w3.org/2000/svg" version="1.1" viewBox="0 0 1080 1080">
  <!-- Generator: Adobe Illustrator 29.3.0, SVG Export Plug-In . SVG Version: 2.1.0 Build 146)  -->
  <path d="M801.74,149.5v386.06c0,49.33-59.65,74.04-94.53,39.15L241.31,108.81c-21.62-21.62-56.69-21.62-78.31,0l-54.2,54.2c-21.62,21.62-21.62,56.69,0,78.31l465.9,465.9c34.88,34.88,10.18,94.53-39.15,94.53H149.5c-30.58,0-55.37,24.79-55.37,55.37v76.64c0,30.58,24.79,55.37,55.37,55.37h784.27c30.58,0,55.37-24.79,55.37-55.37V149.5c0-30.58-24.79-55.37-55.37-55.37h-76.64c-30.58,0-55.37,24.79-55.37,55.37Z"/>
</svg>